<mxfile host="app.diagrams.net" modified="2023-12-05T10:42:27.627Z" agent="Mozilla/5.0 (Macintosh; Intel Mac OS X 10_15_7) AppleWebKit/537.36 (KHTML, like Gecko) Chrome/119.0.0.0 Safari/537.36" etag="7C0qxKIQ8qJ0FBGrFR1S" version="22.1.5" type="device">
  <diagram name="Page-1" id="0UdT4rzVHg9uTgOL11Sc">
    <mxGraphModel dx="1006" dy="765" grid="1" gridSize="10" guides="1" tooltips="1" connect="1" arrows="1" fold="1" page="1" pageScale="1" pageWidth="1654" pageHeight="1169" math="0" shadow="0">
      <root>
        <mxCell id="0" />
        <mxCell id="1" parent="0" />
        <mxCell id="hKpINkVLFpIHJDrPOkMn-32" value="" style="rounded=0;whiteSpace=wrap;html=1;fillColor=#666666;" vertex="1" parent="1">
          <mxGeometry x="1015" y="287.5" width="130" height="160" as="geometry" />
        </mxCell>
        <mxCell id="hKpINkVLFpIHJDrPOkMn-16" style="edgeStyle=orthogonalEdgeStyle;rounded=0;orthogonalLoop=1;jettySize=auto;html=1;fillColor=#ffe6cc;strokeColor=#d79b00;" edge="1" parent="1" source="hKpINkVLFpIHJDrPOkMn-2" target="hKpINkVLFpIHJDrPOkMn-9">
          <mxGeometry relative="1" as="geometry">
            <mxPoint x="530" y="370" as="targetPoint" />
            <Array as="points">
              <mxPoint x="450" y="288" />
              <mxPoint x="450" y="360" />
            </Array>
          </mxGeometry>
        </mxCell>
        <mxCell id="hKpINkVLFpIHJDrPOkMn-2" value="" style="points=[[0.13,0.02,0],[0.5,0,0],[0.87,0.02,0],[0.885,0.4,0],[0.985,0.985,0],[0.5,1,0],[0.015,0.985,0],[0.115,0.4,0]];verticalLabelPosition=bottom;sketch=0;html=1;verticalAlign=top;aspect=fixed;align=center;pointerEvents=1;shape=mxgraph.cisco19.laptop;fillColor=#005073;strokeColor=none;" vertex="1" parent="1">
          <mxGeometry x="320" y="270" width="50" height="35" as="geometry" />
        </mxCell>
        <mxCell id="hKpINkVLFpIHJDrPOkMn-3" value="&lt;b&gt;&lt;font color=&quot;#994c00&quot;&gt;User&lt;/font&gt;&lt;/b&gt;" style="sketch=0;outlineConnect=0;fontColor=#232F3E;gradientColor=none;strokeColor=#232F3E;fillColor=#ffffff;dashed=0;verticalLabelPosition=bottom;verticalAlign=top;align=center;html=1;fontSize=12;fontStyle=0;aspect=fixed;shape=mxgraph.aws4.resourceIcon;resIcon=mxgraph.aws4.user;" vertex="1" parent="1">
          <mxGeometry x="200" y="257.5" width="60" height="60" as="geometry" />
        </mxCell>
        <mxCell id="hKpINkVLFpIHJDrPOkMn-5" style="edgeStyle=orthogonalEdgeStyle;rounded=0;orthogonalLoop=1;jettySize=auto;html=1;entryX=-0.08;entryY=0.486;entryDx=0;entryDy=0;entryPerimeter=0;" edge="1" parent="1" source="hKpINkVLFpIHJDrPOkMn-3" target="hKpINkVLFpIHJDrPOkMn-2">
          <mxGeometry relative="1" as="geometry" />
        </mxCell>
        <mxCell id="hKpINkVLFpIHJDrPOkMn-14" style="edgeStyle=orthogonalEdgeStyle;rounded=0;orthogonalLoop=1;jettySize=auto;html=1;fillColor=#d5e8d4;strokeColor=#82b366;" edge="1" parent="1" source="hKpINkVLFpIHJDrPOkMn-6" target="hKpINkVLFpIHJDrPOkMn-9">
          <mxGeometry relative="1" as="geometry" />
        </mxCell>
        <mxCell id="hKpINkVLFpIHJDrPOkMn-6" value="" style="points=[[0.13,0.02,0],[0.5,0,0],[0.87,0.02,0],[0.885,0.4,0],[0.985,0.985,0],[0.5,1,0],[0.015,0.985,0],[0.115,0.4,0]];verticalLabelPosition=bottom;sketch=0;html=1;verticalAlign=top;aspect=fixed;align=center;pointerEvents=1;shape=mxgraph.cisco19.laptop;fillColor=#005073;strokeColor=none;" vertex="1" parent="1">
          <mxGeometry x="320" y="422.5" width="50" height="35" as="geometry" />
        </mxCell>
        <mxCell id="hKpINkVLFpIHJDrPOkMn-7" value="&lt;b&gt;&lt;font color=&quot;#009900&quot;&gt;User&lt;/font&gt;&lt;/b&gt;" style="sketch=0;outlineConnect=0;fontColor=#232F3E;gradientColor=none;strokeColor=#232F3E;fillColor=#ffffff;dashed=0;verticalLabelPosition=bottom;verticalAlign=top;align=center;html=1;fontSize=12;fontStyle=0;aspect=fixed;shape=mxgraph.aws4.resourceIcon;resIcon=mxgraph.aws4.user;" vertex="1" parent="1">
          <mxGeometry x="200" y="410" width="60" height="60" as="geometry" />
        </mxCell>
        <mxCell id="hKpINkVLFpIHJDrPOkMn-8" style="edgeStyle=orthogonalEdgeStyle;rounded=0;orthogonalLoop=1;jettySize=auto;html=1;entryX=-0.08;entryY=0.486;entryDx=0;entryDy=0;entryPerimeter=0;" edge="1" parent="1" source="hKpINkVLFpIHJDrPOkMn-7" target="hKpINkVLFpIHJDrPOkMn-6">
          <mxGeometry relative="1" as="geometry" />
        </mxCell>
        <mxCell id="hKpINkVLFpIHJDrPOkMn-18" style="edgeStyle=orthogonalEdgeStyle;rounded=0;orthogonalLoop=1;jettySize=auto;html=1;fillColor=#ffe6cc;strokeColor=#d79b00;" edge="1" parent="1" source="hKpINkVLFpIHJDrPOkMn-9">
          <mxGeometry relative="1" as="geometry">
            <mxPoint x="720" y="320" as="targetPoint" />
            <Array as="points">
              <mxPoint x="660" y="368" />
              <mxPoint x="660" y="321" />
            </Array>
          </mxGeometry>
        </mxCell>
        <mxCell id="hKpINkVLFpIHJDrPOkMn-9" value="Amazon API Gateway" style="sketch=0;outlineConnect=0;fontColor=#232F3E;gradientColor=none;strokeColor=#ffffff;fillColor=#232F3E;dashed=0;verticalLabelPosition=middle;verticalAlign=bottom;align=center;html=1;whiteSpace=wrap;fontSize=10;fontStyle=1;spacing=3;shape=mxgraph.aws4.productIcon;prIcon=mxgraph.aws4.api_gateway;" vertex="1" parent="1">
          <mxGeometry x="530" y="312.5" width="80" height="110" as="geometry" />
        </mxCell>
        <mxCell id="hKpINkVLFpIHJDrPOkMn-10" value="" style="sketch=0;html=1;dashed=0;whitespace=wrap;fillColor=#2875E2;strokeColor=#ffffff;points=[[0.005,0.63,0],[0.1,0.2,0],[0.9,0.2,0],[0.5,0,0],[0.995,0.63,0],[0.72,0.99,0],[0.5,1,0],[0.28,0.99,0]];verticalLabelPosition=bottom;align=center;verticalAlign=top;shape=mxgraph.kubernetes.icon;prIcon=api" vertex="1" parent="1">
          <mxGeometry x="850" y="317.5" width="112" height="90" as="geometry" />
        </mxCell>
        <mxCell id="hKpINkVLFpIHJDrPOkMn-11" value="&lt;font color=&quot;#994c00&quot;&gt;&lt;b&gt;/v1/sentences&lt;br&gt;&lt;div style=&quot;text-align: left;&quot;&gt;&lt;b style=&quot;background-color: initial;&quot;&gt;/v1/offences&lt;br&gt;...&lt;/b&gt;&lt;/div&gt;&lt;/b&gt;&lt;/font&gt;" style="text;html=1;align=center;verticalAlign=middle;resizable=0;points=[];autosize=1;strokeColor=none;fillColor=none;" vertex="1" parent="1">
          <mxGeometry x="730" y="290" width="100" height="60" as="geometry" />
        </mxCell>
        <mxCell id="hKpINkVLFpIHJDrPOkMn-12" value="&lt;b&gt;&lt;font color=&quot;#006600&quot;&gt;/v1/case-details&lt;/font&gt;&lt;/b&gt;" style="text;html=1;align=center;verticalAlign=middle;resizable=0;points=[];autosize=1;strokeColor=none;fillColor=none;" vertex="1" parent="1">
          <mxGeometry x="725" y="407.5" width="110" height="30" as="geometry" />
        </mxCell>
        <mxCell id="hKpINkVLFpIHJDrPOkMn-15" style="edgeStyle=orthogonalEdgeStyle;rounded=0;orthogonalLoop=1;jettySize=auto;html=1;entryX=-0.009;entryY=0.583;entryDx=0;entryDy=0;entryPerimeter=0;fillColor=#d5e8d4;strokeColor=#82b366;" edge="1" parent="1" source="hKpINkVLFpIHJDrPOkMn-9" target="hKpINkVLFpIHJDrPOkMn-12">
          <mxGeometry relative="1" as="geometry">
            <Array as="points">
              <mxPoint x="660" y="368" />
              <mxPoint x="660" y="425" />
            </Array>
          </mxGeometry>
        </mxCell>
        <mxCell id="hKpINkVLFpIHJDrPOkMn-19" value="" style="sketch=0;pointerEvents=1;shadow=0;dashed=0;html=1;strokeColor=none;labelPosition=center;verticalLabelPosition=bottom;verticalAlign=top;align=center;fillColor=#505050;shape=mxgraph.mscae.intune.intune_certificate_profiles" vertex="1" parent="1">
          <mxGeometry x="380" y="230" width="40" height="50" as="geometry" />
        </mxCell>
        <mxCell id="hKpINkVLFpIHJDrPOkMn-20" value="" style="sketch=0;pointerEvents=1;shadow=0;dashed=0;html=1;strokeColor=none;labelPosition=center;verticalLabelPosition=bottom;verticalAlign=top;align=center;fillColor=#505050;shape=mxgraph.mscae.intune.intune_certificate_profiles" vertex="1" parent="1">
          <mxGeometry x="380" y="457.5" width="40" height="50" as="geometry" />
        </mxCell>
        <mxCell id="hKpINkVLFpIHJDrPOkMn-21" value="&lt;div style=&quot;&quot;&gt;&lt;pre style=&quot;&quot;&gt;&lt;font style=&quot;&quot; face=&quot;Helvetica&quot;&gt;&lt;font color=&quot;#1a1a1a&quot;&gt;C=GB,ST=London,L=London,O=Org1,CN=&lt;/font&gt;&lt;b style=&quot;&quot;&gt;&lt;font color=&quot;#004c99&quot;&gt;consumer1&lt;/font&gt;&lt;/b&gt;&lt;/font&gt;&lt;font style=&quot;background-color: rgb(30, 31, 34);&quot; face=&quot;JetBrains Mono, monospace&quot;&gt;&lt;span style=&quot;font-size: 9.8pt;&quot;&gt;&lt;br&gt;&lt;/span&gt;&lt;/font&gt;&lt;/pre&gt;&lt;/div&gt;" style="text;html=1;align=center;verticalAlign=middle;resizable=0;points=[];autosize=1;strokeColor=none;fillColor=none;" vertex="1" parent="1">
          <mxGeometry x="370" y="190" width="320" height="50" as="geometry" />
        </mxCell>
        <mxCell id="hKpINkVLFpIHJDrPOkMn-24" value="&lt;div style=&quot;&quot;&gt;&lt;pre style=&quot;&quot;&gt;&lt;font style=&quot;&quot; face=&quot;Helvetica&quot;&gt;&lt;font color=&quot;#333333&quot;&gt;C=GB,ST=London,L=London,O=Org1,CN=&lt;/font&gt;&lt;b style=&quot;&quot;&gt;&lt;font color=&quot;#004c99&quot;&gt;consumer2&lt;/font&gt;&lt;/b&gt;&lt;/font&gt;&lt;font style=&quot;background-color: rgb(30, 31, 34);&quot; face=&quot;JetBrains Mono, monospace&quot;&gt;&lt;span style=&quot;font-size: 9.8pt;&quot;&gt;&lt;br&gt;&lt;/span&gt;&lt;/font&gt;&lt;/pre&gt;&lt;/div&gt;" style="text;html=1;align=center;verticalAlign=middle;resizable=0;points=[];autosize=1;strokeColor=none;fillColor=none;" vertex="1" parent="1">
          <mxGeometry x="360" y="500" width="320" height="50" as="geometry" />
        </mxCell>
        <mxCell id="hKpINkVLFpIHJDrPOkMn-25" value="&lt;pre style=&quot;border-color: var(--border-color);&quot;&gt;&lt;font style=&quot;border-color: var(--border-color);&quot; face=&quot;Helvetica&quot;&gt;&lt;span style=&quot;border-color: var(--border-color);&quot;&gt;&lt;font color=&quot;#ffffff&quot; style=&quot;border-color: var(--border-color);&quot;&gt;&lt;b style=&quot;&quot;&gt;consumer1&lt;br&gt;&lt;/b&gt;&lt;ul style=&quot;&quot;&gt;&lt;li style=&quot;text-align: left;&quot;&gt;&lt;font style=&quot;border-color: var(--border-color);&quot; face=&quot;Helvetica&quot;&gt;&lt;span style=&quot;border-color: var(--border-color);&quot;&gt;&lt;font style=&quot;border-color: var(--border-color);&quot;&gt;/v1/sentences&lt;/font&gt;&lt;/span&gt;&lt;/font&gt;&lt;/li&gt;&lt;li style=&quot;text-align: left;&quot;&gt;&lt;font style=&quot;border-color: var(--border-color);&quot; face=&quot;Helvetica&quot;&gt;&lt;span style=&quot;border-color: var(--border-color);&quot;&gt;&lt;font style=&quot;border-color: var(--border-color);&quot;&gt;/v1/offences&lt;/font&gt;&lt;/span&gt;&lt;/font&gt;&lt;/li&gt;&lt;/ul&gt;&lt;/font&gt;&lt;/span&gt;&lt;/font&gt;&lt;/pre&gt;" style="text;html=1;align=center;verticalAlign=middle;resizable=0;points=[];autosize=1;strokeColor=none;fillColor=none;" vertex="1" parent="1">
          <mxGeometry x="990" y="275" width="140" height="90" as="geometry" />
        </mxCell>
        <mxCell id="hKpINkVLFpIHJDrPOkMn-26" value="&lt;pre style=&quot;border-color: var(--border-color);&quot;&gt;&lt;font style=&quot;border-color: var(--border-color);&quot; face=&quot;Helvetica&quot;&gt;&lt;span style=&quot;border-color: var(--border-color);&quot;&gt;&lt;font color=&quot;#ffffff&quot; style=&quot;border-color: var(--border-color);&quot;&gt;&lt;b style=&quot;&quot;&gt;consumer2&lt;br&gt;&lt;/b&gt;&lt;ul style=&quot;&quot;&gt;&lt;li style=&quot;text-align: left;&quot;&gt;&lt;font style=&quot;border-color: var(--border-color);&quot; face=&quot;Helvetica&quot;&gt;&lt;span style=&quot;border-color: var(--border-color);&quot;&gt;&lt;font style=&quot;border-color: var(--border-color);&quot;&gt;/v1/sentences&lt;/font&gt;&lt;/span&gt;&lt;/font&gt;&lt;/li&gt;&lt;li style=&quot;text-align: left;&quot;&gt;&lt;font style=&quot;border-color: var(--border-color);&quot; face=&quot;Helvetica&quot;&gt;&lt;span style=&quot;border-color: var(--border-color);&quot;&gt;&lt;font style=&quot;border-color: var(--border-color);&quot;&gt;/v1/offences&lt;/font&gt;&lt;/span&gt;&lt;/font&gt;&lt;/li&gt;&lt;/ul&gt;&lt;/font&gt;&lt;/span&gt;&lt;/font&gt;&lt;/pre&gt;" style="text;html=1;align=center;verticalAlign=middle;resizable=0;points=[];autosize=1;strokeColor=none;fillColor=none;" vertex="1" parent="1">
          <mxGeometry x="990" y="347.5" width="140" height="90" as="geometry" />
        </mxCell>
        <mxCell id="hKpINkVLFpIHJDrPOkMn-34" value="YAML configuration allow list" style="text;html=1;align=center;verticalAlign=middle;resizable=0;points=[];autosize=1;strokeColor=none;fillColor=none;" vertex="1" parent="1">
          <mxGeometry x="985" y="245" width="180" height="30" as="geometry" />
        </mxCell>
        <mxCell id="hKpINkVLFpIHJDrPOkMn-35" style="edgeStyle=orthogonalEdgeStyle;rounded=0;orthogonalLoop=1;jettySize=auto;html=1;entryX=0.071;entryY=0.167;entryDx=0;entryDy=0;entryPerimeter=0;" edge="1" parent="1" source="hKpINkVLFpIHJDrPOkMn-10" target="hKpINkVLFpIHJDrPOkMn-26">
          <mxGeometry relative="1" as="geometry" />
        </mxCell>
        <mxCell id="hKpINkVLFpIHJDrPOkMn-36" value="" style="shape=image;html=1;verticalAlign=top;verticalLabelPosition=bottom;labelBackgroundColor=#ffffff;imageAspect=0;aspect=fixed;image=https://cdn3.iconfinder.com/data/icons/flat-actions-icons-9/512/Tick_Mark-128.png" vertex="1" parent="1">
          <mxGeometry x="980" y="324.5" width="23" height="23" as="geometry" />
        </mxCell>
        <mxCell id="hKpINkVLFpIHJDrPOkMn-37" value="" style="verticalLabelPosition=bottom;verticalAlign=top;html=1;shape=mxgraph.basic.x;fillColor=#EA6B66;strokeColor=none;" vertex="1" parent="1">
          <mxGeometry x="960" y="328.5" width="13" height="15" as="geometry" />
        </mxCell>
      </root>
    </mxGraphModel>
  </diagram>
</mxfile>
